/* XPM */
static char * closea_xpm[] = {
"16 16 3 1",
" 	c None",
".	c #222222",
"+	c #D8D8D8",
"................",
"................",
"................",
"................",
"................",
".....++..++.....",
".....++++++.....",
"......++++......",
"......++++......",
".....++++++.....",
".....++..++.....",
"................",
"................",
"................",
"................",
"................"};
