/* XPM */
static char * min_xpm[] = {
"16 16 2 1",
" 	c #222222",
".	c #5F5F5F",
"                ",
"                ",
"                ",
"                ",
"       ..       ",
"       ..       ",
"       ..       ",
"       .....    ",
"       .....    ",
"     ..         ",
"     ..         ",
"                ",
"                ",
"                ",
"                ",
"                "};
